# xmcd
#
# Track frame offsets:
#	150
#	13740
#	25709
#	40156
#	56863
#	68296
#	80257
#	91001
#	105158
#	117903
#	133252
#	145600
#	159753
#	178275
#	190053
#
# Disc length: 2739 seconds
#
# Revision: 0
# Processed by: cddbd v1.5.2PL0 Copyright (c) Steve Scherf et al.
# Submitted via: audiograbber 1.83.01
#
DISCID=b20ab10f
DTITLE=Various Artist - Volksmusik für deine Seele - CD 3
DYEAR=2007
DGENRE=Folk
TTITLE0=Südtiroler Alpenspatzen - Oanmol unt'n oanmol ob'n
TTITLE1=Original Lechschwaben - Heit blei ma do solang die Musik spielt
TTITLE2=Die Krochledern - Net jeder hört bei Liedern auf den Text
TTITLE3=Die jungen Original Oberkrainer - Franz, der Maurerg'sell
TTITLE4=Die Klosterjäger - Wandern mit Dir
TTITLE5=Ann and Andi - Zigeunerwagen
TTITLE6=Geschwister Hauser - Hallo Leierkastenmann
TTITLE7=Maria Hellwig and Heinz Schenk - Auch der Herbst hat noch viele schöne Ta
TTITLE7=ge
TTITLE8=Alexandra Schmied - Trau di doch
TTITLE9=Ann and Andi - Ein Mantel und ein Hut
TTITLE10=Die Hiatamadln - Lass ma's krach'n
TTITLE11=Die Pustertaler - Er lebt mit den Bergen
TTITLE12=Margot Hellwig  - Heimat
TTITLE13=Eberhard Hertel - Der Vugelbeerbamm
TTITLE14=Duo Treibsand - Das rote Eis vom Zillertal
EXTD=
EXTT0=
EXTT1=
EXTT2=
EXTT3=
EXTT4=
EXTT5=
EXTT6=
EXTT7=
EXTT8=
EXTT9=
EXTT10=
EXTT11=
EXTT12=
EXTT13=
EXTT14=
PLAYORDER=
